HIERARCHY
ROOT Hips
{
	OFFSET 0.00000 0.00000 0.00000
	CHANNELS 6 Xposition Yposition Zposition Zrotation Yrotation Xrotation 
	JOINT LHipJoint
	{
		OFFSET 0 0 0
		CHANNELS 3 Zrotation Yrotation Xrotation
		JOINT LeftHip
		{
			OFFSET 1.85742 -1.74412 1.01653
			CHANNELS 3 Zrotation Yrotation Xrotation
			JOINT LeftKnee
			{
				OFFSET 2.54803 -7.00067 0.00000
				CHANNELS 3 Zrotation Yrotation Xrotation
				JOINT LeftAnkle
				{
					OFFSET 2.51202 -6.90173 0.00000
					CHANNELS 3 Zrotation Yrotation Xrotation
					JOINT LeftToe
					{
						OFFSET 0.17547 -0.48209 1.64281
						CHANNELS 3 Zrotation Yrotation Xrotation
						End Site
						{
							OFFSET 0.00000 -0.00000 0.86587
						}
					}
				}
			}
		}
	}
	JOINT RHipJoint
	{
		OFFSET 0 0 0
		CHANNELS 3 Zrotation Yrotation Xrotation
		JOINT RightHip
		{
			OFFSET -1.95533 -1.74413 1.01654
			CHANNELS 3 Zrotation Yrotation Xrotation
			JOINT RightKnee
			{
				OFFSET -2.49465 -6.85400 0.00000
				CHANNELS 3 Zrotation Yrotation Xrotation
				JOINT RightAnkle
				{
					OFFSET -2.54783 -7.00010 0.00000
					CHANNELS 3 Zrotation Yrotation Xrotation
					JOINT RightToe
					{
						OFFSET -0.18513 -0.50864 1.69288
						CHANNELS 3 Zrotation Yrotation Xrotation
						End Site
						{
							OFFSET -0.00000 -0.00000 0.89242
						}
					}
				}
			}
		}
	}
	JOINT lowerback
	{
		OFFSET 0 0 0
		CHANNELS 3 Zrotation Yrotation Xrotation
		JOINT Chest
		{
			OFFSET 0.02173 2.16290 -0.15998
			CHANNELS 3 Zrotation Yrotation Xrotation
			JOINT Chest2
			{
				OFFSET 0.00940 2.17323 -0.00467
				CHANNELS 3 Zrotation Yrotation Xrotation
				JOINT lowerneck
				{
					OFFSET 0 0 0
					CHANNELS 3 Zrotation Yrotation Xrotation
					JOINT Neck
					{
						OFFSET 0.01475 1.85823 0.31113
						CHANNELS 3 Zrotation Yrotation Xrotation
						JOINT Head
						{
							OFFSET 0.01902 1.88783 -0.37187
							CHANNELS 3 Zrotation Yrotation Xrotation
							End Site
							{
								OFFSET 0.00489 1.93211 -0.16169
							}
						}
					}
				}
				JOINT LeftCollar
				{
					OFFSET 0 0 0
					CHANNELS 3 Zrotation Yrotation Xrotation
					JOINT LeftShoulder
					{
						OFFSET 3.34199 1.32384 -0.07862
CHANNELS 3 Zrotation Xrotation Yrotation
						JOINT LeftElbow
						{
OFFSET 0 -5.279500 0.000000
CHANNELS 3 Zrotation Xrotation Yrotation
							JOINT LeftWrist
							{
OFFSET 0 -3.535040 0.000000
CHANNELS 3 Zrotation Xrotation Yrotation
								JOINT lhand
								{
									OFFSET 0 0 0
CHANNELS 3 Zrotation Xrotation Yrotation
									JOINT LFingers
									{
OFFSET 0 -0.667950 0.000000
CHANNELS 3 Zrotation Xrotation Yrotation
										End Site
										{
OFFSET 0 -0.538520 0.000000
										}
									}
								}
								JOINT LThumb
								{
OFFSET 0 0.000000 0.000000
CHANNELS 3 Zrotation Xrotation Yrotation
									End Site
									{
OFFSET 0 -0.546740 0.546740
									}
								}
							}
						}
					}
				}
				JOINT RightCollar
				{
					OFFSET 0 0 0
					CHANNELS 3 Zrotation Yrotation Xrotation
					JOINT RightShoulder
					{
						OFFSET -3.16149 1.45719 -0.50507
CHANNELS 3 Zrotation Xrotation Yrotation
						JOINT RightElbow
						{
OFFSET 0 -5.250350 0.000000
CHANNELS 3 Zrotation Xrotation Yrotation
							JOINT RightWrist
							{
OFFSET 0 -3.588840 0.000000
CHANNELS 3 Zrotation Xrotation Yrotation
								JOINT rhand
								{
									OFFSET 0 0 0
CHANNELS 3 Zrotation Xrotation Yrotation
									JOINT RFingers
									{
OFFSET 0 -0.779240 0.000000
CHANNELS 3 Zrotation Xrotation Yrotation
										End Site
										{
OFFSET 0 -0.628240 0.000000
										}
									}
								}
								JOINT RThumb
								{
OFFSET 0 0.000000 0.000000
CHANNELS 3 Zrotation Xrotation Yrotation
									End Site
									{
OFFSET 0 -0.637830 0.637830
									}
								}
							}
						}
					}
				}
			}
		}
	}
}
MOTION
Frames: 4
Frame Time: 0.008333333333333333
-17.382200 17.455500 -2.258000 -48.091700 88.867700 -43.866200 0.000000 0.000000 0.000000 -18.717500 -14.675300 -6.200400 2.055800 8.981300 25.736900 0.940600 9.636800 -24.200800 2.396100 -9.646500 -27.839400 0.000000 0.000000 0.000000 23.608000 25.099300 10.187500 -0.383100 -3.974900 11.006000 2.531800 -30.975600 -29.165100 -0.007800 0.572000 -1.571900 -1.575600 0.607200 -0.278900 0.992200 0.836400 -2.401100 1.886000 0.471400 -2.343700 0.388300 -0.157300 -24.944400 0.629600 -0.307900 28.674000 0.157400 0.119400 13.948000 -0.000000 -0.000000 0.000000 3.697900 5.277600 -28.112800 15.440700 -24.756500 3.408400 30.731200 -0.316900 -50.397700 0.000000 0.000000 0.000000 -7.125000 0.000000 0.000000 -44.131500 82.591500 38.719400 -0.000000 -0.000000 0.000000 -12.092400 5.967900 33.385500 -22.432500 -33.462400 -6.822800 -18.301400 -10.292200 -19.682300 0.000000 0.000000 0.000000 7.125000 0.000000 -0.000000 6.470200 9.440700 5.356400
-17.452581 17.495520 -2.195533 -55.589373 89.001072 -51.380547 0.000000 0.000000 0.000000 -18.992586 -17.905804 -4.550314 1.916203 8.689041 24.827483 0.710374 12.529969 -24.954013 2.116548 -9.104175 -26.122161 0.000000 0.000000 0.000000 23.414350 24.348032 9.074321 -0.436318 -4.237871 11.746990 2.089950 -29.479807 -29.139452 -0.000126 0.026781 -0.073614 -1.498014 0.466445 -0.098526 1.127068 0.647794 -2.278902 1.983544 0.374913 -2.311636 0.329810 -0.056572 -24.943731 1.071630 -0.298841 28.346867 0.343489 0.175387 13.809518 0.000000 0.000000 0.000000 3.664332 5.934161 -27.505446 15.596418 -24.970259 3.473804 30.482974 -1.090652 -50.592344 0.000000 0.000000 0.000000 -7.125000 0.000000 0.000000 -45.649221 82.572128 40.081135 0.000000 0.000000 0.000000 -9.685813 5.820484 30.408004 -22.289630 -33.302804 -6.744221 -18.988887 -6.571959 -20.378518 0.000000 0.000000 0.000000 7.125000 0.000000 0.000000 6.070336 8.630148 5.120059
-17.529714 17.518293 -2.128146 -59.976824 89.159897 -55.823732 0.000000 0.000000 0.000000 -19.054982 -19.293995 -3.619700 1.764456 8.356661 23.803023 0.569055 13.873692 -25.190521 1.913719 -8.681956 -24.806690 0.000000 0.000000 0.000000 23.262628 23.939050 7.778534 -0.544017 -4.723802 13.122796 1.745714 -28.383205 -29.427312 -0.002011 -0.288838 0.793614 -1.492894 0.411786 0.018145 1.117060 0.569453 -2.068423 1.971896 0.330658 -2.156963 0.444201 0.007663 -24.898159 1.421347 -0.382433 27.889853 0.443274 0.194391 13.608428 0.000000 0.000000 0.000000 3.931967 6.402175 -27.279129 15.973323 -25.484291 3.634607 30.846507 -1.330542 -51.137839 0.000000 0.000000 0.000000 -7.125000 0.000000 0.000000 -49.362951 82.984745 43.810006 0.000000 0.000000 0.000000 -8.901253 6.101682 29.806078 -22.289070 -33.302146 -6.743918 -19.541261 -5.318618 -21.381893 0.000000 0.000000 0.000000 7.125000 0.000000 0.000000 5.787861 7.513847 5.007530
-17.610286 17.556340 -2.065704 -71.620959 89.296318 -67.366273 0.000000 0.000000 0.000000 -19.157624 -21.415849 -2.540274 1.607166 7.994541 22.697726 0.353346 15.869756 -25.695510 1.793954 -8.422275 -24.004704 0.000000 0.000000 0.000000 23.015685 23.486853 6.115005 -0.675321 -5.253967 14.634625 1.408935 -27.203477 -29.595430 -0.004783 -0.445903 1.225276 -1.517750 0.390218 0.199001 1.154713 0.537652 -1.999685 2.024227 0.314762 -2.187127 0.629775 0.023640 -24.835734 1.506440 -0.472209 27.482603 0.424607 0.179887 13.425738 0.000000 0.000000 0.000000 4.157968 6.806009 -26.822889 16.249580 -25.857842 3.754171 30.081340 -1.821653 -50.886275 0.000000 0.000000 0.000000 -7.125000 0.000000 0.000000 -47.940362 82.523204 42.127351 0.000000 0.000000 0.000000 -8.954791 6.330546 29.781003 -21.748629 -32.691415 -6.449702 -19.708095 -4.489124 -21.544112 0.000000 0.000000 0.000000 7.125000 0.000000 0.000000 5.694064 7.321298 4.947112
